<svg xmlns="http://www.w3.org/2000/svg" width="512" height="512" viewBox="0 0 512 512">
  <defs>
    <linearGradient id="g" x1="0" y1="0" x2="1" y2="1">
      <stop offset="0" stop-color="#22C55E"/>
      <stop offset="1" stop-color="#10B981"/>
    </linearGradient>
    <filter id="shadow" x="-20%" y="-20%" width="140%" height="140%">
      <feDropShadow dx="0" dy="18" stdDeviation="18" flood-color="#22C55E" flood-opacity="0.25"/>
    </filter>
  </defs>
  <rect x="48" y="48" width="416" height="416" rx="110" fill="#07140b"/>
  <rect x="56" y="56" width="400" height="400" rx="104" fill="url(#g)" opacity="0.18"/>
  <g filter="url(#shadow)">
    <path
      d="M319 156c-12-22-36-36-63-36-42 0-75 25-75 62 0 34 26 49 63 57l13 3c22 5 33 12 33 26 0 16-16 27-39 27-22 0-39-9-53-27l-44 28c22 36 54 54 97 54 52 0 88-27 88-70 0-38-25-55-66-65l-13-3c-20-5-30-11-30-23 0-14 14-24 33-24 18 0 31 7 40 20l49-29z"
      fill="white"
      opacity="0.96"
    />
  </g>
</svg>
